<?xml version="1.0" standalone="no"?>
<!DOCTYPE svg PUBLIC "-//W3C//DTD SVG 1.1//EN" "http://www.w3.org/Graphics/SVG/1.1/DTD/svg11.dtd" >
<svg xmlns="http://www.w3.org/2000/svg">
<metadata>Generated by IcoMoon</metadata>
<defs>
<font id="icomoon" horiz-adv-x="1024">
<font-face units-per-em="1024" ascent="960" descent="-64" />
<missing-glyph horiz-adv-x="1024" />
<glyph unicode="&#x20;" d="" horiz-adv-x="512" />
<glyph unicode="&#xe600;" d="M252.842 638.778l-53.798-54.052c-9.426-9.472-9.39-24.79 0.082-34.216l295.806-294.398c9.44-9.394 24.694-9.394 34.134 0l295.808 294.398c9.472 9.424 9.506 24.744 0.080 34.216l-53.798 54.052c-9.426 9.472-24.744 9.508-34.216 0.082l-207.874-206.89c-9.438-9.392-24.694-9.392-34.134 0l-207.876 206.89c-9.47 9.424-24.788 9.388-34.214-0.082z" />
<glyph unicode="&#xe601;" d="M703.294 707.158l-54.054 53.798c-9.472 9.426-24.79 9.39-34.216-0.082l-294.4-295.808c-9.394-9.44-9.394-24.694 0-34.134l294.4-295.808c9.424-9.472 24.744-9.506 34.216-0.080l54.052 53.798c9.472 9.426 9.508 24.744 0.082 34.216l-206.888 207.876c-9.392 9.438-9.392 24.694 0 34.134l206.89 207.876c9.424 9.47 9.39 24.788-0.082 34.214z" />
<glyph unicode="&#xe602;" d="M320.706 707.158l54.052 53.798c9.472 9.426 24.79 9.39 34.216-0.082l294.398-295.806c9.394-9.44 9.394-24.694 0-34.134l-294.396-295.808c-9.424-9.472-24.744-9.506-34.216-0.080l-54.052 53.798c-9.472 9.426-9.508 24.744-0.082 34.216l206.89 207.874c9.392 9.438 9.392 24.694 0 34.134l-206.892 207.876c-9.424 9.47-9.388 24.788 0.082 34.214z" />
<glyph unicode="&#xe603;" d="M252.842 256.706l-53.798 54.054c-9.426 9.472-9.39 24.79 0.082 34.216l295.808 294.398c9.44 9.394 24.694 9.394 34.134 0l295.808-294.398c9.472-9.424 9.506-24.744 0.080-34.216l-53.798-54.052c-9.426-9.472-24.744-9.508-34.216-0.082l-207.876 206.888c-9.438 9.392-24.694 9.392-34.134 0l-207.876-206.89c-9.47-9.424-24.788-9.388-34.214 0.082z" />
<glyph unicode="&#xe604;" d="M924 403.152v89.696l-84.18 21.070c-2.794 13.978-6.454 27.644-10.932 40.938l62.336 60.304-44.848 77.68-83.506-23.864c-9.33 10.582-19.312 20.566-29.894 29.894l23.862 83.508-77.68 44.848-60.308-62.338c-13.288 4.478-26.954 8.134-40.932 10.932l-21.070 84.18h-89.696l-21.068-84.18c-13.98-2.796-27.646-6.454-40.936-10.934l-60.308 62.34-77.68-44.848 23.866-83.51c-10.584-9.328-20.566-19.312-29.896-29.892l-83.508 23.864-44.848-77.68 62.338-60.308c-4.478-13.29-8.136-26.956-10.932-40.934l-84.18-21.070v-89.696l84.178-21.066c2.796-13.98 6.454-27.648 10.934-40.942l-62.338-60.308 44.848-77.676 83.508 23.868c9.328-10.582 19.312-20.57 29.896-29.898l-23.866-83.508 77.68-44.848 60.308 62.34c13.29-4.48 26.956-8.136 40.936-10.934l21.068-84.18h89.696l21.070 84.18c13.978 2.796 27.644 6.454 40.936 10.934l60.304-62.34 77.68 44.848-23.862 83.508c10.582 9.328 20.568 19.316 29.894 29.898l83.506-23.868 44.848 77.676-62.336 60.308c4.478 13.292 8.136 26.96 10.936 40.942l84.176 21.066zM512 286.312c-89.298 0-161.69 72.39-161.69 161.688 0 89.3 72.39 161.692 161.69 161.692s161.694-72.39 161.694-161.692c0-89.296-72.394-161.688-161.694-161.688z" />
<glyph unicode="&#xe605;" d="M773.276 435.462c-83.242 0-150.724-67.48-150.724-150.726 0-83.242 67.482-150.722 150.724-150.722 83.246 0 150.724 67.48 150.724 150.722 0 83.246-67.478 150.726-150.724 150.726zM787.096 214.126v-17.574h-25.144v15.714c-12.070 1.036-28.006 5.41-39.742 11.878l8.316 28.976c10.888-4.25 25.876-9.394 38.822-9.394 2.862 0 5.62 0.25 8.214 0.816 12.544 2.738 15.708 14.004 0.948 20.372-12.476 5.598-55.4 11.454-55.4 47.352 0 14.872 11.146 35.308 38.842 41.36v17.832h25.144v-16.368c10.77-0.738 21.762-2.73 34.458-6.7-1.272-5.542-6.758-29.61-6.758-29.61-8.172 2.782-21.174 7.5-34.044 7.5-0.936 0-1.87-0.028-2.802-0.078-16.992-0.954-18.208-13.364-6.754-19.098 23.502-10.624 57.542-19.664 57.542-51.36 0.030-24.492-19.054-38.438-41.642-41.618zM441.076 372.412v29.75c9.208-9.098 21.040-17.184 35.288-24.106 29.628-14.386 67.85-22.786 108.538-23.98-6.474-17.536-10.556-36.214-11.874-55.64-74.596 5.176-131.952 36.32-131.952 73.976zM441.076 451.162v29.746c9.208-9.090 21.040-17.18 35.288-24.098 32.068-15.574 74.194-24.148 118.624-24.148 15.87 0 31.436 1.114 46.364 3.226-19.042-16.636-34.92-36.804-46.608-59.468-84.89 0.062-153.668 33.5-153.668 74.742zM441.076 608.572v29.75c9.208-9.094 21.040-17.184 35.288-24.106 32.068-15.57 74.194-24.144 118.624-24.144 44.438 0 86.568 8.574 118.624 24.144 14.248 6.922 26.084 15.012 35.292 24.106v-29.75c0-41.282-68.91-74.746-153.916-74.746-85.002 0-153.912 33.466-153.912 74.746zM594.988 612.486c85.006 0 153.916 33.464 153.916 74.742 0 41.29-68.91 74.758-153.916 74.758-85.002 0-153.912-33.468-153.912-74.758 0-41.276 68.91-74.742 153.912-74.742zM598.846 677.944c-9.678 3.208-42.988 6.602-42.988 27.046 0.004 8.472 8.664 20.102 30.146 23.504l0.004 10.164 19.512-0.036-0.002-9.32c8.364-0.446 16.892-1.582 26.738-3.864-0.984-3.16-5.242-16.856-5.242-16.856-6.344 1.594-16.422 4.296-26.406 4.316-0.726 0-1.456-0.016-2.19-0.042-13.184-0.524-14.13-7.59-5.244-10.868 18.236-6.086 44.648-11.274 44.64-29.328 0.026-13.958-14.778-21.882-32.308-23.66l-0.006-10.008-19.514 0.036v8.954c-9.356 0.602-21.724 3.114-30.834 6.812l6.458 16.5c8.452-2.438 20.084-5.386 30.132-5.406 2.212 0 4.356 0.136 6.368 0.454 9.74 1.542 12.19 7.956 0.736 11.602zM441.076 529.916v29.746c9.208-9.094 21.040-17.188 35.288-24.106 32.068-15.566 74.194-24.144 118.624-24.144 44.438 0 86.568 8.578 118.624 24.144 14.248 6.918 26.084 15.012 35.292 24.106v-29.746c0-41.286-68.91-74.75-153.916-74.75-85.002 0-153.912 33.464-153.912 74.75zM372.538 378.056c14.246 6.922 26.080 15.008 35.292 24.106v-29.75c0-41.282-68.91-74.746-153.916-74.746-85.002 0-153.914 33.464-153.914 74.746v29.75c9.208-9.098 21.038-17.184 35.288-24.106 32.062-15.57 74.194-24.144 118.626-24.144 44.436 0 86.564 8.574 118.624 24.144zM253.914 525.822c-85.002 0-153.914-33.464-153.914-74.754 0-41.278 68.912-74.742 153.914-74.742 85.006 0 153.916 33.464 153.916 74.742 0 41.29-68.91 74.754-153.916 74.754zM264.428 412.846l-0.006-10.012-19.51 0.036v8.954c-9.362 0.602-21.73 3.114-30.84 6.816l6.458 16.492c8.454-2.434 20.084-5.382 30.132-5.402 2.216-0.004 4.354 0.136 6.374 0.458 9.732 1.542 12.186 7.954 0.73 11.598-9.676 3.208-42.986 6.602-42.982 27.046 0 8.472 8.654 20.102 30.144 23.504l0.002 10.164 19.512-0.032v-9.324c8.36-0.442 16.89-1.582 26.734-3.86-0.982-3.164-5.242-16.86-5.242-16.86-6.342 1.594-16.42 4.292-26.404 4.316-0.728 0-1.458-0.016-2.19-0.046-13.184-0.516-14.134-7.586-5.244-10.864 18.236-6.086 44.648-11.274 44.64-29.328 0.028-13.958-14.78-21.882-32.308-23.656zM441.076 293.752v29.75c9.208-9.094 21.040-17.188 35.288-24.106 26.66-12.946 60.28-21.036 96.388-23.402 0.854-19.79 4.582-38.848 10.786-56.762-79.65 2.848-142.462 35.114-142.462 74.52zM632.272 142.030c-11.942-1.446-24.422-2.222-37.284-2.222-85.002 0-153.912 33.464-153.912 74.75v30.282c9.208-9.094 21.040-17.184 35.288-24.102 31.58-15.332 72.916-23.868 116.598-24.122 9.994-20.368 23.336-38.806 39.31-54.586zM372.538 220.736c14.246 6.918 26.080 15.008 35.292 24.102v-30.282c0-41.286-68.91-74.75-153.916-74.75-85.002 0-153.914 33.466-153.914 74.75v30.282c9.208-9.094 21.038-17.184 35.288-24.102 32.062-15.57 74.194-24.148 118.626-24.148 44.436 0 86.564 8.578 118.624 24.148zM372.538 299.396c14.246 6.918 26.080 15.012 35.292 24.106v-29.75c0-41.282-68.91-74.746-153.916-74.746-85.002 0-153.914 33.464-153.914 74.746v29.75c9.208-9.094 21.038-17.188 35.288-24.106 32.062-15.57 74.194-24.144 118.626-24.144 44.436 0 86.564 8.574 118.624 24.144z" />
<glyph unicode="&#xe606;" d="M553.486 319.632l170.608-96.678-96.654-170.5-22.678 81.948c-124.758-34.534-252.638 7.682-333.372 98.146 40.398 2.826 78.608 16.76 111.082 40.316 53.564-40.298 124.586-56.178 194.176-36.914l-23.162 83.682zM99.998 448.002c0-86.154 69.842-155.996 155.996-155.996 86.152 0 155.994 69.842 155.994 155.996s-69.842 155.994-155.994 155.994c-86.154 0-155.996-69.842-155.996-155.994zM396.554 843.546l-96.654-170.502 170.612-96.676-23.166 83.678c69.592 19.262 140.614 3.386 194.176-36.912 32.476 23.556 70.686 37.492 111.084 40.318-80.732 90.464-208.614 132.68-333.368 98.146l-22.684 81.948zM652.010 448.002c0 63.958 52.036 115.994 115.994 115.994 63.96 0 115.996-52.036 115.996-115.994 0-63.96-52.036-115.996-115.996-115.996s-115.996 52.036-115.994 115.996zM612.010 448.002c0-86.154 69.842-155.996 155.994-155.996 86.154 0 155.996 69.842 155.996 155.996s-69.842 155.994-155.996 155.994c-86.152 0-155.994-69.842-155.994-155.994z" />
<glyph unicode="&#xe607;" d="M923.914 172.854h-212.796c-0.010 231.598-115.774 121.52-115.774 324.464 0 73.258 47.96 113.020 109.544 113.020 90.99 0 154.316-86.878 68.15-249.332-28.306-53.368 30.144-66.050 92.938-80.536 62.768-14.476 57.938-47.57 57.938-107.616zM578.238 308.22c-78.984 18.218-152.508 34.172-116.9 101.304 108.384 204.34 28.728 313.622-85.724 313.622-116.708 0-194.404-113.472-85.722-313.622 36.674-67.542-39.618-83.476-116.904-101.304-78.952-18.21-72.878-59.836-72.878-135.368h551.010c-0.002 75.532 6.072 117.158-72.882 135.368z" />
<glyph unicode="&#xe608;" d="M483.794 414.532v-114.52l-41.926-10.148 14.376-59.364-61.894-14.98 13.542-55.944-137.464-33.284-23.078 95.336 167.468 271.952c16.066-31.756 39.89-58.948 68.976-79.048zM522.724 392.276l-0.004-286.918 69.36-69.358 100.008 100.010-40.7 40.7 45.032 45.026-43.192 43.186 43.192 43.194v89.204c-55.712-26.612-118.958-27.43-173.696-5.044zM776.65 588.832c0-95.432-77.364-172.792-172.792-172.792-95.43 0.002-172.79 77.36-172.792 172.792 0 87.396 64.91 159.602 149.14 171.14-17.628 33.982-53.122 57.272-93.98 57.272-58.352 0-105.82-47.472-105.82-105.824 0-23.546 7.738-45.314 20.796-62.914-4.942-16.746-7.876-34.344-8.48-52.524-33.59 27.24-55.070 68.824-55.070 115.438 0 82.058 66.52 148.58 148.574 148.58 65.008 0 120.226-41.764 140.386-99.914 84.668-11.142 150.038-83.542 150.038-171.254zM646.624 669.806c0 11.662-4.672 22.222-12.23 29.952-1.152-16.22-4.628-30.77-9.402-40.014-14.118-2.96-32.122 5.69-38.632 18.56 3.516 9.15 5.64 18.82 5.684 32.692-17.958-5.108-31.124-21.596-31.128-41.19 0.004-23.672 19.192-42.862 42.86-42.862 23.664 0.006 42.848 19.19 42.848 42.862z" />
<glyph unicode="&#xe609;" d="M924 403.152v89.696l-84.18 21.070c-2.794 13.978-6.454 27.644-10.932 40.938l62.336 60.304-44.848 77.68-83.506-23.864c-9.33 10.582-19.312 20.566-29.894 29.894l23.862 83.508-77.68 44.848-60.308-62.338c-13.288 4.478-26.954 8.134-40.932 10.932l-21.070 84.18h-89.696l-21.068-84.18c-13.98-2.796-27.646-6.454-40.936-10.934l-60.308 62.34-77.68-44.848 23.866-83.51c-10.584-9.328-20.566-19.312-29.896-29.892l-83.508 23.864-44.848-77.68 62.338-60.308c-4.478-13.29-8.136-26.956-10.932-40.934l-84.18-21.070v-89.696l84.178-21.066c2.796-13.98 6.454-27.648 10.934-40.942l-62.338-60.308 44.848-77.676 83.508 23.868c9.328-10.582 19.312-20.57 29.896-29.898l-23.866-83.508 77.68-44.848 60.308 62.34c13.29-4.48 26.956-8.136 40.936-10.934l21.068-84.18h89.696l21.070 84.18c13.978 2.796 27.644 6.454 40.936 10.934l60.304-62.34 77.68 44.848-23.862 83.508c10.582 9.328 20.568 19.316 29.894 29.898l83.506-23.868 44.848 77.676-62.336 60.308c4.478 13.292 8.136 26.96 10.936 40.942l84.176 21.066zM512 286.312c-89.298 0-161.69 72.39-161.69 161.688 0 89.3 72.39 161.692 161.69 161.692s161.694-72.39 161.694-161.692c0-89.296-72.394-161.688-161.694-161.688z" />
<glyph unicode="&#xe60a;" d="M922.8 472.284c0-101.704-82.742-184.442-184.442-184.442h-71.192v80h71.192c57.59 0 104.442 46.852 104.442 104.442 0 70.824-47.632 107.492-98.36 107.688-2.606 117.804-81.274 169.964-157.328 169.964-100.614 0-141.946-76.16-152.262-105.324-41.020 59.164-152.352 14.496-129.282-64.696-69.068 12.524-124.368-39.476-124.368-107.632 0-57.59 46.856-104.442 104.446-104.442h81.524v-80h-81.524c-101.704 0-184.446 82.738-184.446 184.442 0 82.816 55.122 154.254 132.308 176.926 21.708 73.996 99.566 117.372 173.864 97.558 44.48 52.598 109.546 83.168 179.742 83.168 114.23 0 210.73-81.632 231.562-191.554 63.206-30.408 104.124-94.27 104.124-166.098zM611.102 372.458c0 61.52 12.11 96.968 63.852 113.672-40.132 16.906-250.074 57.632-250.074-134.042 0-64.372 0-117.816 0-117.816h-74.812l167.926-168.208 167.926 168.208h-74.816c-0.002 0-0.002 84.41-0.002 138.186z" />
<glyph unicode="&#xe60b;" d="M924.194 172.538h-213.042c-0.010 231.866-115.908 121.66-115.908 324.838 0 73.342 48.016 113.152 109.67 113.152 91.096 0 154.494-86.978 68.23-249.62-28.338-53.43 30.18-66.126 93.044-80.628 62.842-14.496 58.006-47.626 58.006-107.742zM578.512 308.060c-79.078 18.24-152.686 34.212-117.036 101.42 108.51 204.578 28.762 313.984-85.822 313.984-116.844 0-194.63-113.606-85.822-313.984 36.718-67.62-39.66-83.574-117.036-101.42-79.046-18.228-72.966-59.904-72.966-135.524h241.058l16.19 83.12h37.156l16.19-83.12h241.058c-0.008 75.62 6.074 117.294-72.97 135.524zM389.242 276.516h-26.768l-20.924 43.832h68.838l-21.146-43.832z" />
<glyph unicode="&#xe60c;" d="M755.616 181.616h-198.604v60.098h198.604v-60.098zM755.548 292.63h-198.538v60.098h198.538v-60.098zM781.188 588.906h-380.806v-552.906h505.786v428.036l-124.98 124.87zM826.038 116.13h-345.524v392.646h240.576v-90.814h104.948v-301.832zM329.11 185.91h-132.15v530.858h120.864l49.914-50.082h166.77l50.582 50.082h114.686v-63.762h81.13v143.558h-114.124c-18.214 0-35.688 7.208-48.606 20.048l-43.604 43.388h-250.406l-43.602-43.384c-12.918-12.842-30.39-20.050-48.606-20.050h-114.126v-691.786h211.278v81.13z" />
<glyph unicode="&#xe60d;" d="M896 784c-610.192 0-610.192 0-648 0-47.222 0-47.222-69.056 0-69.056 16.11 0 98.116 0 227.64 0v-81.138h-164.586v-517.806h504.946v517.804h-47.226v81.138c66.46 0 124.526 0 127.226 0v-678.942h-668c-55.226 0-100 44.772-100 100v624c0 55.228 44.774 100 100 100h668v-76zM541.64 687.804c0-28.196 0-289.93 0-289.93l79.566 75.566 79.566-75.566v289.93c0 35.804 15.724 51.804 42 57.138-24.944 0-134.276 0-157.61 0s-43.522-22.664-43.522-57.138z" />
<glyph unicode="&#xe60e;" d="M603.86 541.678c-13.22-197.774-55.082-332.614-101.652-445.678h-175.464c-58.544 142.19-90.392 272.222-101.75 445.678h378.866zM666.934 601.678h-504.97c8.84-259.88 60.39-415.94 124.988-565.678h254.992c63.13 145.228 116.228 308.020 124.99 565.678zM719.234 528.48c-1.316-19-2.91-37.68-4.758-56.086h80.304c-18.902-67.57-57.714-132.342-109.118-181.314-6.352-28.48-13.48-56.904-22.922-89.060 114.34 73.462 188.184 204.13 199.292 326.46h-142.798zM445.218 630.094c155.62 140.26-32.198 132.856 3.824 229.906-124.228-125.374 46.288-128.186-3.824-229.906zM353.89 630.052c103.594 92.81-21.83 101.908 2.854 167.48-86.788-91.506 31.234-93.896-2.854-167.48z" />
<glyph unicode="&#xe60f;" d="M711.2 502h-563.2c-26.51 0-48-21.49-48-48v-312c0-26.51 21.49-48 48-48h563.2c26.51 0 48 21.49 48 48v312c0 26.51-21.492 48-48 48zM173.6 360.936c0 11.486 9.312 20.798 20.8 20.798h11.398v-29.984h-32.198v9.186zM173.6 340.548h32.2v-25.798h-32.2v25.798zM173.6 303.548h32.2v-28.484h-11.4c-11.488 0-20.8 9.312-20.8 20.8v7.684zM269.068 165.202h-95.468v30.398h95.468v-30.398zM291.468 295.866c0-11.488-9.312-20.8-20.8-20.8h-11.454v28.484h32.254v-7.684zM291.468 314.75h-32.254v25.798h32.254v-25.798zM291.468 351.75h-43.454v-76.686h-31.014v106.67h53.668c11.488 0 20.8-9.312 20.8-20.798v-9.186zM409.87 165.202h-95.47v30.398h95.468v-30.398zM549.87 165.202h-95.47v30.398h95.468v-30.398zM553 271.866c-31.222 0-56.536 25.312-56.536 56.536s25.312 56.532 56.536 56.532c10.958 0 21.184-3.126 29.846-8.524-11.986-12.468-19.38-29.386-19.38-48.008s7.394-35.54 19.38-48.008c-8.662-5.4-18.888-8.528-29.846-8.528zM576.266 328.4c0 31.222 25.308 56.532 56.534 56.532 31.222 0 56.536-25.308 56.536-56.532s-25.312-56.536-56.536-56.536c-31.226 0.002-56.534 25.314-56.534 56.536zM689.87 165.202h-95.47v30.398h95.468v-30.398zM876 802h-563.2c-26.51 0-48-21.49-48-48v-212h48v76.268h563.2v-160.268c0-8.836-7.164-16-16-16h-60.8v-48h76.8c26.51 0 48 21.49 48 48v312c0 26.51-21.49 48-48 48zM876 704.134h-563.2v33.866c0 8.838 7.164 16 16 16h531.2c8.836 0 16-7.162 16-16v-33.866zM572.336 575.6v-30.398h-211.468v30.398h211.468zM828 545.202h-95.468v30.398h95.468v-30.398z" />
<glyph unicode="&#xe610;" d="M747.058 796.666c-18.184 0-35.628 7.196-48.528 20.016l-43.53 43.318h-286l-43.534-43.316c-12.896-12.822-30.342-20.018-48.526-20.018h-117.94v-760.666h706v760.666h-117.942zM784 117h-546v600h124.666l49.834-50h202.5l50.5 50h118.5v-600zM325.748 405.148l32.712 30.242c38.266-18.516 62.532-32.604 105.542-63.262 80.852 91.754 134.278 138.304 233.584 200.090l10.644-24.484c-81.894-71.468-141.874-151.070-228.238-305.954-53.27 62.738-88.822 102.728-154.244 163.368z" />
<glyph unicode="&#xe611;" d="M397.652 490.094c15.774-5.61 28.438-17.63 34.852-33.094 0-0.008 0.004-0.012 0.008-0.020 6.41-15.456 5.966-32.936-1.218-48.046l-18.824-39.598 54.058-54.050 39.82 18.926c14.996 7.126 32.304 7.566 47.636 1.188 0.008-0.004 0.016-0.004 0.024-0.008 15.574-6.476 27.708-19.27 33.356-35.164l14.598-41.040h76.446l14.692 41.304c5.604 15.762 17.612 28.41 33.060 34.816 0.004 0 0.012 0.004 0.016 0.008 15.474 6.414 32.974 5.966 48.098-1.226l39.57-18.804 54.058 54.050-18.816 39.574c-7.19 15.136-7.64 32.61-1.222 48.090 0.004 0.004 0.004 0.012 0.008 0.020 6.402 15.438 19.074 27.464 34.82 33.066l41.308 14.688v76.446l-41.306 14.688c-15.758 5.604-28.414 17.616-34.816 33.062-0.008 0.012-0.008 0.016-0.012 0.020-6.414 15.474-5.966 32.974 1.226 48.098l18.812 39.57-54.058 54.054-39.57-18.812c-15.136-7.194-32.61-7.644-48.090-1.226-0.008 0.004-0.016 0.008-0.020 0.008-15.44 6.402-27.462 19.078-33.064 34.824l-14.692 41.308h-76.446l-14.688-41.308c-5.606-15.762-17.612-28.418-33.066-34.824-0.004 0-0.012 0-0.020-0.008-15.47-6.414-32.97-5.962-48.094 1.23l-39.566 18.808-54.058-54.054 18.816-39.578c7.19-15.132 7.64-32.606 1.218-48.082 0-0.008-0.004-0.016-0.008-0.020-6.398-15.442-19.070-27.472-34.82-33.070l-41.304-14.688v-76.444l41.278-14.682zM536.104 542.998c0 57.484 46.602 104.086 104.082 104.086 57.484 0 104.084-46.602 104.084-104.086 0-57.48-46.6-104.082-104.084-104.082-57.48 0-104.082 46.602-104.082 104.082zM121.95 272.222c8.384-2.984 15.114-9.376 18.528-17.598 0 0 0.004-0.004 0.004-0.008 3.406-8.214 3.168-17.506-0.652-25.542l-10.004-21.050 28.738-28.734 21.168 10.062c7.972 3.788 17.176 4.022 25.324 0.632 0.004 0 0.008-0.004 0.012-0.004 8.28-3.446 14.73-10.246 17.734-18.696l7.758-21.82h40.64l7.808 21.964c2.984 8.376 9.364 15.102 17.578 18.504 0.004 0 0.004 0.004 0.008 0.004 8.224 3.41 17.524 3.172 25.564-0.652l21.040-9.996 28.738 28.734-10.004 21.040c-3.824 8.046-4.062 17.336-0.648 25.562 0 0.004 0 0.008 0.004 0.012 3.398 8.21 10.136 14.602 18.508 17.578l21.96 7.804v40.64l-21.96 7.804c-8.376 2.98-15.106 9.364-18.508 17.578-0.004 0.004-0.004 0.008-0.004 0.012-3.41 8.222-3.172 17.526 0.648 25.566l10.004 21.040-28.738 28.734-21.040-10c-8.046-3.824-17.336-4.062-25.56-0.652-0.004 0-0.008 0-0.012 0-8.206 3.406-14.598 10.144-17.578 18.516l-7.808 21.96h-40.64l-7.808-21.96c-2.976-8.38-9.364-15.106-17.574-18.516-0.004 0-0.008 0-0.012 0-8.226-3.41-17.526-3.168-25.566 0.652l-21.036 10-28.738-28.734 10-21.040c3.824-8.046 4.066-17.336 0.652-25.566 0-0.004 0-0.008-0.004-0.008-3.402-8.206-10.14-14.606-18.516-17.582l-21.958-7.804v-40.64l21.95-7.796zM195.546 300.338c0 30.558 24.774 55.332 55.332 55.332s55.33-24.774 55.33-55.332c0-30.554-24.772-55.328-55.33-55.328s-55.332 24.774-55.332 55.328zM409.012 156.476c3.172-0.796 5.666-3.246 6.508-6.406 0.002-0.018 0.010-0.034 0.014-0.050 0.852-3.196-0.098-6.61-2.472-8.91l-11.488-11.114 11.14-19.292 15.54 4.446c3.096 0.882 6.432 0.020 8.708-2.262 0.002-0.004 0.004-0.004 0.006-0.008 2.376-2.38 3.278-5.88 2.354-9.114l-4.372-15.3 19.292-11.136 11.166 11.542c2.27 2.348 5.634 3.282 8.786 2.438 0.016-0.004 0.034-0.008 0.048-0.016 3.202-0.852 5.69-3.388 6.494-6.598l3.878-15.508h22.278l3.9 15.582c0.794 3.172 3.248 5.668 6.406 6.508 0.016 0.004 0.034 0.008 0.052 0.012 3.192 0.852 6.61-0.096 8.908-2.472l11.112-11.488 19.292 11.136-4.444 15.546c-0.884 3.094-0.020 6.434 2.26 8.708 0.004 0 0.006 0.004 0.008 0.008 2.384 2.376 5.882 3.274 9.118 2.352l15.296-4.376 11.136 19.292-11.542 11.168c-2.346 2.27-3.282 5.634-2.434 8.786 0.002 0.014 0.006 0.034 0.012 0.054 0.854 3.196 3.388 5.688 6.6 6.492l15.506 3.878v22.278l-15.58 3.898c-3.174 0.792-5.668 3.246-6.508 6.406-0.002 0.014-0.010 0.034-0.014 0.050-0.852 3.192 0.098 6.61 2.472 8.91l11.488 11.11-11.136 19.292-15.544-4.442c-3.098-0.886-6.432-0.020-8.708 2.262-0.002 0-0.004 0.004-0.006 0.004-2.376 2.384-3.278 5.884-2.352 9.118l4.372 15.296-19.292 11.14-11.168-11.546c-2.27-2.344-5.634-3.282-8.786-2.434-0.014 0.004-0.034 0.008-0.050 0.012-3.2 0.856-5.69 3.392-6.492 6.602l-3.882 15.504h-22.278l-3.896-15.578c-0.794-3.176-3.248-5.668-6.408-6.508-0.014-0.004-0.030-0.012-0.048-0.012-3.194-0.856-6.608 0.096-8.908 2.472l-11.112 11.488-19.292-11.14 4.442-15.542c0.884-3.098 0.018-6.434-2.264-8.708 0-0.004-0.002-0.004-0.004-0.008-2.382-2.376-5.88-3.278-9.116-2.352l-15.294 4.372-11.14-19.292 11.542-11.168c2.346-2.266 3.282-5.634 2.436-8.786-0.004-0.014-0.010-0.034-0.014-0.050-0.854-3.2-3.39-5.688-6.6-6.492l-15.506-3.878v-22.278l15.58-3.898zM455.6 171.514c0 22.176 17.976 40.156 40.156 40.156 22.178 0 40.156-17.98 40.156-40.156 0-22.18-17.978-40.16-40.156-40.16-22.18 0-40.156 17.98-40.156 40.16z" />
<glyph unicode="&#xe612;" d="M923.914 172.854h-212.796c-0.010 231.598-115.774 121.52-115.774 324.464 0 73.258 47.96 113.020 109.544 113.020 90.99 0 154.316-86.878 68.15-249.332-28.306-53.368 30.144-66.050 92.938-80.536 62.768-14.476 57.938-47.57 57.938-107.616zM578.238 308.22c-78.984 18.218-152.508 34.172-116.9 101.304 108.384 204.34 28.728 313.622-85.724 313.622-116.708 0-194.404-113.472-85.722-313.622 36.674-67.542-39.618-83.476-116.904-101.304-78.952-18.21-72.878-59.836-72.878-135.368h551.010c-0.002 75.532 6.072 117.158-72.882 135.368z" />
<glyph unicode="&#xe613;" d="M713.628 616.37c-30.042 0-58.242-7.876-82.658-21.668-16.132-9.114-35.996-8.55-51.598 1.442l-174.622 111.818c-13.498 8.644-22.026 23.24-22.958 39.242-3.624 62.266-55.366 112.796-119.792 112.796-66.274 0-120-53.726-120-120 0-84.972 85.664-142.312 163.628-111.796 14.918 5.838 31.732 4.166 45.224-4.472l150.336-96.268c27.288-17.474 43.948-47.718 44.072-80.12 0-0.008 0-0.016 0-0.024 0.124-31.42-15.866-60.718-42.326-77.662l-152.084-97.386c-13.47-8.626-30.326-10.302-45.222-4.472-78.058 30.544-163.628-26.948-163.628-111.8 0-66.274 53.726-120 120-120 64.372 0 116.17 50.482 119.794 112.794 0.928 15.976 9.48 30.614 22.958 39.244l174.62 111.818c15.586 9.98 35.482 10.544 51.598 1.442 24.416-13.792 52.616-21.67 82.658-21.67 92.99 0 168.372 75.386 168.372 168.372 0 92.988-75.382 168.37-168.372 168.37z" />
<glyph unicode="&#xe614;" d="M440.448 192.788v168.090h299.718v83.492l167.834-167.54-167.834-167.54v83.496h-299.718zM561.024 420.876h80v365.832h-525.024v-600l220.89 169.824v350.176h224.132v-285.832z" />
<glyph unicode="&#xe615;" d="M924 559.376h-824v-206.528h824v206.528zM154.802 410.818l36.232 90.59h43.772l-36.234-90.59h-43.77zM225.748 410.818l36.232 90.59h43.768l-36.232-90.59h-43.768zM296.69 410.818l36.232 90.59h43.768l-36.234-90.59h-43.766zM367.634 410.818l36.23 90.59h43.766l-36.228-90.59h-43.768zM482.344 410.818h-43.768l36.234 90.59h43.772l-36.238-90.59zM826.168 425.862c-16.704 0-30.25 13.546-30.25 30.254s13.546 30.25 30.25 30.25c16.712 0 30.258-13.542 30.258-30.25s-13.546-30.254-30.258-30.254zM878.574 613.724h-731.38l144.238 190.304h441.134l146.008-190.304zM924 298.502h-824v-206.532h824v206.532zM154.802 149.944l36.232 90.586h43.772l-36.234-90.586h-43.77zM225.748 149.944l36.232 90.586h43.768l-36.232-90.586h-43.768zM296.69 149.944l36.232 90.586h43.768l-36.234-90.586h-43.766zM367.634 149.944l36.23 90.586h43.766l-36.228-90.586h-43.768zM482.344 149.944h-43.768l36.234 90.586h43.772l-36.238-90.586zM826.168 164.986c-16.704 0-30.25 13.542-30.25 30.25 0 16.71 13.546 30.25 30.25 30.25 16.712 0 30.258-13.54 30.258-30.25 0-16.706-13.546-30.25-30.258-30.25z" />
<glyph unicode="&#xe616;" d="M240.236 755.252c-54.298 0-98.66-49.114-98.66-101.948v-513.256c0-52.83 48.352-102.652 102.65-102.652h384.942c54.3 0 102.652 49.82 102.652 102.652h25.664c54.3 0 102.65 49.814 102.65 102.65v410.002l-179.638 205.104c-3.182 0-307.954 0.802-307.954 0.802-54.298 0-102.652-49.82-102.652-102.652l-29.654-0.702zM269.89 704.628v-461.932c0-52.836 48.352-102.65 102.652-102.65 0 0 278.244 0.272 308.178 0.272 0-31.134-20.418-51.598-51.55-51.598h-384.944c-26.936 0-51.326 25.18-51.326 51.326v513.258c0.002 38.174 31.4 51.324 76.99 51.324zM680.496 806.526l128.314-153.224h-76.988c-27.336 0-51.326 24.672-51.326 51.326 0 0 0 51.982 0 101.862v0.036zM680.496 319.41h-230.966c-14.174 0-25.664 11.48-25.664 25.636 0 14.16 11.49 25.64 25.664 25.64h230.966c14.174 0 25.664-11.48 25.664-25.64 0-14.158-11.49-25.636-25.664-25.636zM680.496 447.598h-230.966c-14.174 0-25.664 11.482-25.664 25.634 0 14.162 11.49 25.644 25.664 25.644h230.966c14.174 0 25.664-11.482 25.664-25.644 0-14.154-11.49-25.634-25.664-25.634z" />
<glyph unicode="&#xe617;" d="M620.978 724.54c-22.35 12.83-36.19 36.73-36.144 62.5 0 0.042 0 0.084 0 0.126 0 40.226-32.612 72.834-72.834 72.834-40.226 0-72.834-32.608-72.834-72.834 0-0.042 0-0.084 0-0.128 0.044-25.802-13.768-49.656-36.144-62.5-162.162-93.080-68.982-402.202-238.422-456.836v-72.202h694.8v72.202c-169.442 54.636-76.258 363.758-238.422 456.838zM512 816.716c16.294 0 29.55-13.254 29.55-29.55 0-16.294-13.256-29.55-29.55-29.55-16.292 0-29.55 13.256-29.55 29.55s13.258 29.55 29.55 29.55zM280.696 265.5c74.898 92.488 68.8 238.67 106.672 333.088 20.614 51.392 57.312 88.212 124.632 88.212 66.612 0 103.73-36.102 124.632-88.212 37.876-94.424 31.78-240.606 106.672-333.088h-462.608zM612.334 135.334c0-54.862-44.472-99.334-99.334-99.334-54.86 0-99.332 44.472-99.332 99.334h198.666z" />
<glyph unicode="&#xe618;" d="M100.846 753.186v-610.372h822.306v610.372h-822.306zM825.856 673.186l-314.67-260.058-313.804 260.058h628.474zM843.152 222.814h-662.306v355.016l330.274-273.626 332.032 274.38v-355.77z" />
<glyph unicode="&#xe619;" d="M801.96 546.272c-34.624-46.974-85.96-93.324-143.808-85.758-15.672-21.844-33.124-52.316-52.536-87.72l-44.848-14.052c37.954 73.94 88.656 155.722 143.040 217.854-23.55-15.31-62.25-48.246-95.91-82.966-30.372 63.32 1.636 121.97 48.046 166.758-1.328-21.092 8.058-40.344 15.074-50.24-1.188 17.646 0.864 49.158 13.738 76.486 25.852 21.764 48.708 37.43 74.828 51.142-4.242-15.434-0.628-33.928 4.344-45.468 2.254 15.986 11.782 46.19 22.782 58.712 32.582 21 80.816 37.776 132.296 36.918-5.696-31.66-22.324-83.078-44.828-114.98-18.156-11.646-42.164-18.476-61.29-21.744 15.844-4.442 33.598-5.742 49.016-4.598-11.21-23.524-22.614-45.096-39.844-71.53-23.75-13.246-54.102-19.080-74.864-20.184 14.514-7.59 40.972-12.026 54.764-8.63zM726.704 258.938c-1.476-0.968-326.366-205.934-326.366-205.934l-0.036 0.054c-50.626-30.172-110.9-18.14-148.040 18.996-53.69 53.692-44.318 144.686 20.428 186.662l37.14-47.69c-56.318-29.984-34.49-114.992 28.6-114.992 50.162 0 78.956 57.542 48.792 97.656 0 0-201.98 258.308-252.344 321.632-52.484 65.99-33.516 154.454 38.678 189.046l284.974 145.746c52.688 23.42 115.812 4.218 145.856-47.018 29.226-49.856 17.040-115.126-31.050-150.624l-281.66-159.156-37.206 47.938c56.272 30.066 34.334 114.956-28.678 114.956-42.718 0-84.69-51.51-43.73-103.896 49.158-62.872 248.99-317.31 248.99-317.31 17.976-21.344 27.474-47.372 28.352-73.832 0 0 199.538 125.768 230.276 145.48 31.726 20.346 37.594 58.824 14.27 85.952-0.090 0.104-5.758 7.056-14.876 18.242 20.618 2.546 41 9.37 60.894 20.298 51.236-62.746 27.618-138.842-23.264-172.206zM291.012 697.102c34.778-22.292 56.814-61.32 55.782-104.926l185.59 105.12c29.042 16.644 33.746 49.574 21.152 73.678-14.602 27.952-46.972 35.328-71.486 23.908l-191.038-97.78zM496.762 339.362c8.918 17.608 24.292 48.186 39.226 76.666l-124.148-72.742 27.43-37.61 57.492 33.686zM354.426 419.038l27.43-37.612 181.184 106.16-28.554 36.95-180.060-105.498z" />
<glyph unicode="&#xe61a;" d="M512 820.056l-412-411.686h85.014v-332.426h653.97v332.426h85.016l-412 411.686zM748.984 165.944h-147.534v172.99h-178.902v-172.99h-147.536v290.076l236.988 236.806 236.984-236.804v-290.078z" />
<glyph unicode="&#xe61b;" d="M646.948 730l12.82-45.38h-295.218l12.758 45.38h269.64zM336.326 780h351.552l80.12-280.464h83.024l-103.916 360.464h-469.964l-104.164-360.464h83.606l79.742 280.464zM339.958 597.16h344.516l-15.254 54h-314.080l-15.182-54zM312.508 499.536h399.546l-17.516 62h-364.596l-17.434-62zM830.598 359.536l-35.722-243.536h-565.752l-35.72 243.536h637.194zM923.188 439.536h-822.376l59.188-403.536h704l59.188 403.536zM626.914 263c0 19.33-15.67 35-34.998 35h-159.834c-19.328 0-35-15.67-35-35 0-19.332 15.672-35 35-35h159.834c19.328 0 34.998 15.668 34.998 35z" />
<glyph unicode="&#xe61c;" d="M747.058 796.666c-18.184 0-35.628 7.196-48.528 20.016l-43.53 43.318h-286l-43.534-43.316c-12.896-12.822-30.342-20.018-48.526-20.018h-117.94v-760.666h706v760.666h-117.942zM784 117h-546v600h124.666l49.834-50h202.5l50.5 50h118.5v-600zM305.748 502.28l18.002 16.642c21.056-10.19 34.412-17.942 58.080-34.814 44.492 50.494 73.894 76.112 128.542 110.112l5.858-13.474c-45.068-39.328-78.074-83.134-125.602-168.368-29.314 34.522-48.878 56.53-84.88 89.902zM305.748 288.28l18.002 16.642c21.056-10.19 34.412-17.942 58.080-34.814 44.492 50.494 73.894 76.112 128.542 110.112l5.858-13.474c-45.068-39.328-78.074-83.134-125.602-168.368-29.314 34.522-48.878 56.53-84.88 89.902zM715.166 519h-140v40h140v-40zM715.166 484h-140v-40h140v40zM715.166 285.666h-140v40h140v-40zM715.166 250.666h-140v-40h140v40z" />
<glyph unicode="&#xe61d;" d="M920.95 143.114l-218.15 218.146c31.9 50.274 50.4 109.846 50.4 173.666 0.002 179.246-145.826 325.074-325.076 325.074-179.246 0-325.074-145.828-325.074-325.074s145.828-325.074 325.074-325.074c60.652 0 117.466 16.712 166.11 45.752l219.602-219.604 107.114 107.114zM224.234 534.926c0 112.426 91.464 203.892 203.89 203.892s203.894-91.466 203.894-203.892-91.466-203.89-203.894-203.89c-112.426 0-203.89 91.464-203.89 203.89z" />
</font>
</defs>
</svg>
